<svg width="44" height="44" viewBox="0 0 44 44" fill="none" xmlns="http://www.w3.org/2000/svg">
<path d="M3.21856 8.05815C2.59927 8.05815 2.0454 7.90958 1.55694 7.61245C1.07721 7.31531 0.69779 6.92054 0.418674 6.42813C0.139558 5.92724 0 5.37542 0 4.77265C0 4.17837 0.14828 3.63503 0.444841 3.14263C0.750125 2.64174 1.16008 2.24697 1.6747 1.95832C2.18932 1.66118 2.76936 1.51261 3.41481 1.51261C4.06027 1.51261 4.64031 1.65694 5.15493 1.94559C5.66955 2.22575 6.07514 2.61203 6.3717 3.10443C6.67698 3.59683 6.82962 4.1529 6.82962 4.77265V7.90534H5.59977V5.57492L6.04461 5.24383C6.04461 5.77019 5.9225 6.24561 5.67827 6.67009C5.44277 7.09457 5.11132 7.43416 4.68392 7.68885C4.26524 7.93505 3.77679 8.05815 3.21856 8.05815ZM3.41481 6.86111C3.81604 6.86111 4.17802 6.76772 4.50075 6.58095C4.82348 6.39418 5.07643 6.14373 5.2596 5.82961C5.44277 5.50701 5.53435 5.15893 5.53435 4.78538C5.53435 4.40335 5.44277 4.05527 5.2596 3.74115C5.07643 3.42703 4.82348 3.17659 4.50075 2.98982C4.17802 2.79455 3.81604 2.69692 3.41481 2.69692C3.01358 2.69692 2.6516 2.79455 2.32888 2.98982C2.01487 3.17659 1.76192 3.42703 1.57003 3.74115C1.38686 4.05527 1.29527 4.40335 1.29527 4.78538C1.29527 5.15893 1.38686 5.50701 1.57003 5.82961C1.76192 6.14373 2.01487 6.39418 2.32888 6.58095C2.6516 6.76772 3.01358 6.86111 3.41481 6.86111Z" fill="#070707"/>
<path d="M22.3097 8.05811H21.0144V4.33963C21.0144 3.83025 21.1103 3.37605 21.3022 2.97703C21.5029 2.57802 21.7907 2.2639 22.1658 2.03468C22.5495 1.80546 23.0205 1.69085 23.5788 1.69085C23.7881 1.69085 23.9887 1.71207 24.1806 1.75452C24.3812 1.78848 24.5644 1.84366 24.7301 1.92007V3.16805C24.5731 3.07466 24.403 3.00675 24.2199 2.9643C24.0454 2.92185 23.871 2.90063 23.6965 2.90063C23.2691 2.90063 22.929 3.03646 22.676 3.30813C22.4318 3.57131 22.3097 3.93212 22.3097 4.39056V8.05811Z" fill="#070707"/>
<path d="M41.6281 8.02274C41.1047 8.02274 40.6599 7.92087 40.2936 7.71712C39.9272 7.51336 39.6481 7.2332 39.4562 6.87664C39.273 6.51158 39.1815 6.09134 39.1815 5.61592V0H40.4767V5.57772C40.4767 5.98522 40.5901 6.30358 40.8169 6.53281C41.0524 6.76203 41.362 6.87664 41.7458 6.87664C41.9552 6.87664 42.1645 6.84268 42.3738 6.77476C42.5919 6.70684 42.7794 6.6177 42.9364 6.50734V7.66618C42.7707 7.76805 42.5701 7.85295 42.3346 7.92087C42.0991 7.98879 41.8636 8.02274 41.6281 8.02274ZM42.9364 2.71245H37.9124V1.61728H42.9364V2.71245Z" fill="#070707"/>
<path d="M3.57263 26.065H2.27736V22.3465C2.27736 21.8371 2.3733 21.3829 2.56519 20.9839C2.76581 20.5849 3.05365 20.2708 3.42871 20.0416C3.8125 19.8124 4.2835 19.6977 4.84174 19.6977C5.05107 19.6977 5.25169 19.719 5.44358 19.7614C5.6442 19.7954 5.82737 19.8506 5.99309 19.927V21.175C5.83609 21.0816 5.666 21.0136 5.48283 20.9712C5.30838 20.9287 5.13394 20.9075 4.95949 20.9075C4.53209 20.9075 4.19192 21.0434 3.93897 21.315C3.69474 21.5782 3.57263 21.939 3.57263 22.3975V26.065Z" fill="#070707"/>
<path d="M22.2596 26.139C21.6141 26.139 21.0341 25.9904 20.5195 25.6933C20.0048 25.3961 19.5949 25.0014 19.2896 24.509C18.9843 24.0081 18.8317 23.4562 18.8317 22.8535C18.8317 22.2507 18.9843 21.7031 19.2896 21.2107C19.5949 20.7183 20.0048 20.3278 20.5195 20.0392C21.0341 19.742 21.6141 19.5934 22.2596 19.5934C22.905 19.5934 23.4851 19.742 23.9997 20.0392C24.5143 20.3278 24.9199 20.7226 25.2164 21.2235C25.513 21.7159 25.6613 22.2592 25.6613 22.8535C25.6613 23.4562 25.513 24.0081 25.2164 24.509C24.9199 25.0014 24.5099 25.3961 23.9866 25.6933C23.472 25.9904 22.8963 26.139 22.2596 26.139ZM22.2596 24.9419C22.6608 24.9419 23.0184 24.8486 23.3324 24.6618C23.6551 24.475 23.9081 24.2246 24.0913 23.9104C24.2744 23.5878 24.366 23.2398 24.366 22.8662C24.366 22.4842 24.2744 22.1361 24.0913 21.822C23.9081 21.5079 23.6551 21.2574 23.3324 21.0706C23.0184 20.8754 22.6608 20.7778 22.2596 20.7778C21.8583 20.7778 21.4964 20.8754 21.1736 21.0706C20.8596 21.2574 20.6067 21.5079 20.4148 21.822C20.2229 22.1361 20.1269 22.4842 20.1269 22.8662C20.1269 23.2398 20.2229 23.5878 20.4148 23.9104C20.6067 24.2246 20.8596 24.475 21.1736 24.6618C21.4964 24.8486 21.8583 24.9419 22.2596 24.9419Z" fill="#070707"/>
<path d="M40.5867 26.0088C39.9412 26.0088 39.3612 25.8603 38.8466 25.5631C38.3319 25.266 37.922 24.8712 37.6167 24.3788C37.3201 23.8864 37.1719 23.3431 37.1719 22.7488C37.1719 22.1121 37.3158 21.5475 37.6036 21.0551C37.8915 20.5627 38.2883 20.1764 38.7942 19.8963C39.3001 19.6076 39.8758 19.4633 40.5213 19.4633C41.0359 19.4633 41.5069 19.5822 41.9343 19.8199C42.3704 20.0491 42.7193 20.359 42.981 20.7495C43.2426 21.14 43.3735 21.5645 43.3735 22.0229L42.6931 21.6918L42.7062 16.7509H44.0015V22.7488C44.0015 23.3601 43.8488 23.9161 43.5436 24.417C43.247 24.9094 42.8414 25.3 42.3268 25.5886C41.8122 25.8688 41.2321 26.0088 40.5867 26.0088ZM40.5867 24.8245C40.9879 24.8245 41.3499 24.7312 41.6726 24.5444C41.9953 24.3491 42.2483 24.0944 42.4315 23.7803C42.6146 23.4662 42.7062 23.1181 42.7062 22.7361C42.7062 22.3625 42.6146 22.0187 42.4315 21.7046C42.2483 21.382 41.9953 21.1273 41.6726 20.9405C41.3499 20.7537 40.9879 20.6604 40.5867 20.6604C40.1854 20.6604 39.8235 20.7537 39.5007 20.9405C39.1867 21.1273 38.9338 21.382 38.7419 21.7046C38.5587 22.0187 38.4671 22.3625 38.4671 22.7361C38.4671 23.1181 38.5587 23.4662 38.7419 23.7803C38.9338 24.0944 39.1867 24.3491 39.5007 24.5444C39.8235 24.7312 40.1854 24.8245 40.5867 24.8245Z" fill="#070707"/>
<path d="M3.06481 37.5945H4.36008V43.8344H3.06481V37.5945ZM3.7059 36.3593C3.55762 36.3593 3.41806 36.3253 3.28723 36.2574C3.15639 36.181 3.05172 36.0791 2.97322 35.9518C2.89472 35.8244 2.85547 35.6843 2.85547 35.5315C2.85547 35.3787 2.89472 35.2386 2.97322 35.1113C3.05172 34.9839 3.15639 34.8821 3.28723 34.8057C3.41806 34.7292 3.55762 34.691 3.7059 34.691C3.8629 34.691 4.00246 34.7292 4.12458 34.8057C4.25541 34.8821 4.35572 34.9839 4.4255 35.1113C4.504 35.2386 4.54325 35.3787 4.54325 35.5315C4.54325 35.6843 4.504 35.8244 4.4255 35.9518C4.35572 36.0791 4.25541 36.181 4.12458 36.2574C4.00246 36.3253 3.8629 36.3593 3.7059 36.3593Z" fill="#070707"/>
<path d="M23.4551 44C22.9318 44 22.4869 43.8981 22.1206 43.6943C21.7543 43.4906 21.4752 43.2104 21.2833 42.8539C21.1001 42.4888 21.0085 42.0686 21.0085 41.5931V35.9772H22.3038V41.5549C22.3038 41.9624 22.4172 42.2808 22.644 42.51C22.8795 42.7392 23.1891 42.8539 23.5729 42.8539C23.7822 42.8539 23.9916 42.8199 24.2009 42.752C24.419 42.6841 24.6065 42.5949 24.7635 42.4846V43.6434C24.5978 43.7453 24.3972 43.8302 24.1616 43.8981C23.9261 43.966 23.6906 44 23.4551 44ZM24.7635 38.6897H19.7394V37.5945H24.7635V38.6897Z" fill="#070707"/>
<path d="M40.8597 43.9745C40.2142 43.9745 39.6342 43.8344 39.1195 43.5543C38.6049 43.2656 38.1993 42.8751 37.9028 42.3827C37.6062 41.8818 37.4579 41.313 37.4579 40.6763C37.4579 40.082 37.5931 39.5386 37.8635 39.0462C38.1339 38.5453 38.5133 38.1506 39.0018 37.8619C39.4902 37.5648 40.0572 37.4162 40.7027 37.4162C41.3481 37.4162 41.902 37.5563 42.3643 37.8365C42.8353 38.1081 43.1973 38.4817 43.4502 38.9571C43.7119 39.424 43.8427 39.9461 43.8427 40.5234V41.0328H38.4654L38.7009 40.5234C38.6747 40.9649 38.7488 41.3597 38.9233 41.7078C39.0977 42.0558 39.3507 42.336 39.6821 42.5482C40.0136 42.752 40.4017 42.8539 40.8466 42.8539C41.2478 42.8539 41.6098 42.769 41.9325 42.5992C42.264 42.4294 42.5256 42.1747 42.7175 41.8351L43.7119 42.3317C43.4328 42.8666 43.0446 43.2741 42.5474 43.5543C42.0503 43.8344 41.4877 43.9745 40.8597 43.9745ZM38.7663 40.2178H42.5474C42.53 39.8867 42.4384 39.5938 42.2727 39.3391C42.1157 39.0844 41.8976 38.8892 41.6185 38.7533C41.3481 38.6175 41.0385 38.5496 40.6896 38.5496C40.332 38.5496 40.0136 38.6218 39.7345 38.7661C39.4641 38.9104 39.246 39.1099 39.0803 39.3646C38.9233 39.6193 38.8186 39.9037 38.7663 40.2178Z" fill="#070707"/>
</svg>
