<svg width="44" height="44" viewBox="0 0 50 49" fill="none" xmlns="http://www.w3.org/2000/svg">
<path d="M2.17001 8.52118C1.50231 8.52118 0.97158 8.3407 0.577812 7.97974C0.192604 7.61019 0 7.12891 0 6.53591C0 5.9515 0.201164 5.48742 0.603493 5.14365C1.01438 4.79128 1.59647 4.58502 2.34977 4.52486L4.25013 4.37017V4.22836C4.25013 3.93616 4.19449 3.70411 4.08321 3.53223C3.98048 3.35175 3.83068 3.22284 3.6338 3.14549C3.43691 3.05955 3.20579 3.01657 2.94042 3.01657C2.47817 3.01657 2.12292 3.11111 1.87468 3.30018C1.62643 3.48066 1.50231 3.73849 1.50231 4.07366H0.166923C0.166923 3.60958 0.282486 3.20994 0.513611 2.87477C0.753296 2.531 1.08714 2.26458 1.51515 2.07551C1.95172 1.88643 2.45249 1.7919 3.01746 1.7919C3.591 1.7919 4.08321 1.89503 4.49409 2.10129C4.90498 2.29896 5.22171 2.59975 5.44427 3.00368C5.66684 3.39902 5.77812 3.89319 5.77812 4.48619V8.35359H4.40421L4.28865 7.41252C4.15169 7.7391 3.88632 8.00553 3.49255 8.21179C3.10735 8.41805 2.6665 8.52118 2.17001 8.52118ZM2.67078 7.33518C3.15871 7.33518 3.54391 7.19767 3.8264 6.92265C4.11745 6.64764 4.26297 6.26519 4.26297 5.77532V5.44015L2.94042 5.54328C2.45249 5.58625 2.1058 5.68938 1.90036 5.85267C1.69492 6.00737 1.59219 6.21363 1.59219 6.47146C1.59219 6.75506 1.68636 6.96992 1.87468 7.11602C2.063 7.26212 2.32837 7.33518 2.67078 7.33518Z" fill="#070707"/>
<path d="M27.1186 1.95948V3.41621H26.5408C25.9673 3.41621 25.5179 3.5709 25.1926 3.88029C24.8673 4.18109 24.7047 4.64088 24.7047 5.25967V8.35359H23.1382V1.99816H24.6148L24.7432 3.31308H24.5891C24.6747 2.89196 24.8759 2.54819 25.1926 2.28177C25.5093 2.01535 25.9202 1.88214 26.4253 1.88214C26.5366 1.88214 26.6478 1.88643 26.7591 1.89503C26.8704 1.90362 26.9902 1.92511 27.1186 1.95948Z" fill="#070707"/>
<path d="M44.7227 1.98527H48.7288V3.30018H44.7227V1.98527ZM47.509 8.35359H45.9425V0H47.509V8.35359Z" fill="#070707"/>
<path d="M5.41859 22.1989V23.6556H4.84078C4.26725 23.6556 3.81784 23.8103 3.49255 24.1197C3.16727 24.4205 3.00462 24.8803 3.00462 25.4991V28.593H1.43811V22.2376H2.91474L3.04314 23.5525H2.88906C2.97466 23.1314 3.17583 22.7876 3.49255 22.5212C3.80928 22.2548 4.22017 22.1215 4.72522 22.1215C4.8365 22.1215 4.94778 22.1258 5.05907 22.1344C5.17035 22.143 5.29019 22.1645 5.41859 22.1989Z" fill="#070707"/>
<path d="M21.4818 25.3959C21.4818 24.7342 21.6273 24.1541 21.9183 23.6556C22.2094 23.1486 22.6117 22.7532 23.1253 22.4696C23.6389 22.186 24.221 22.0442 24.8716 22.0442C25.5307 22.0442 26.1128 22.186 26.6179 22.4696C27.1315 22.7532 27.5338 23.1486 27.8249 23.6556C28.1159 24.1541 28.2614 24.7342 28.2614 25.3959C28.2614 26.0577 28.1159 26.6421 27.8249 27.1492C27.5338 27.6476 27.1315 28.0387 26.6179 28.3223C26.1128 28.6059 25.5307 28.7477 24.8716 28.7477C24.221 28.7477 23.6389 28.6059 23.1253 28.3223C22.6117 28.0387 22.2094 27.6476 21.9183 27.1492C21.6273 26.6421 21.4818 26.0577 21.4818 25.3959ZM23.0483 25.3959C23.0483 25.7827 23.1253 26.1222 23.2794 26.4144C23.442 26.7066 23.6561 26.9343 23.9214 27.0976C24.1953 27.2609 24.5121 27.3425 24.8716 27.3425C25.2311 27.3425 25.5479 27.2609 25.8218 27.0976C26.0957 26.9343 26.3097 26.7066 26.4638 26.4144C26.6179 26.1222 26.6949 25.7827 26.6949 25.3959C26.6949 25.0006 26.6179 24.6611 26.4638 24.3775C26.3097 24.0853 26.0957 23.8576 25.8218 23.6943C25.5479 23.531 25.2311 23.4494 24.8716 23.4494C24.5121 23.4494 24.1953 23.531 23.9214 23.6943C23.6561 23.8576 23.442 24.0853 23.2794 24.3775C23.1253 24.6611 23.0483 25.0006 23.0483 25.3959Z" fill="#070707"/>
<path d="M46.2892 28.7606C45.6728 28.7606 45.1421 28.6231 44.697 28.3481C44.2604 28.0645 43.918 27.6734 43.6698 27.175C43.4301 26.6765 43.3102 26.0964 43.3102 25.4346C43.3102 24.7729 43.4301 24.1885 43.6698 23.6814C43.918 23.1657 44.2732 22.7618 44.7355 22.4696C45.1977 22.1774 45.7456 22.0313 46.3791 22.0313C46.8242 22.0313 47.2308 22.1215 47.5989 22.302C47.967 22.4739 48.2494 22.7188 48.4463 23.0368V19.0018H50V28.593H48.5619L48.4592 27.6004C48.2708 27.9613 47.9798 28.2449 47.586 28.4512C47.2008 28.6575 46.7685 28.7606 46.2892 28.7606ZM46.6359 27.3168C47.0039 27.3168 47.3207 27.2394 47.586 27.0847C47.8514 26.9214 48.0568 26.6937 48.2024 26.4015C48.3564 26.1007 48.4335 25.7612 48.4335 25.3831C48.4335 24.9963 48.3564 24.6611 48.2024 24.3775C48.0568 24.0853 47.8514 23.8576 47.586 23.6943C47.3207 23.5224 47.0039 23.4365 46.6359 23.4365C46.2763 23.4365 45.9639 23.5224 45.6985 23.6943C45.4331 23.8576 45.2277 24.0853 45.0822 24.3775C44.9452 24.6697 44.8767 25.0049 44.8767 25.3831C44.8767 25.7612 44.9452 26.0964 45.0822 26.3886C45.2277 26.6808 45.4331 26.9085 45.6985 27.0718C45.9639 27.2351 46.2763 27.3168 46.6359 27.3168Z" fill="#070707"/>
<path d="M1.95172 48.8324V42.4641H3.51823V48.8324H1.95172ZM2.72214 41.1878C2.45677 41.1878 2.22993 41.0976 2.0416 40.9171C1.86184 40.7281 1.77196 40.5003 1.77196 40.2339C1.77196 39.9675 1.86184 39.744 2.0416 39.5635C2.22993 39.3831 2.45677 39.2928 2.72214 39.2928C2.9875 39.2928 3.21007 39.3831 3.38983 39.5635C3.57815 39.744 3.67232 39.9675 3.67232 40.2339C3.67232 40.5003 3.57815 40.7281 3.38983 40.9171C3.21007 41.0976 2.9875 41.1878 2.72214 41.1878Z" fill="#070707"/>
<path d="M23.4078 42.4641H27.414V43.779H23.4078V42.4641ZM26.1941 48.8324H24.6276V40.4788H26.1941V48.8324Z" fill="#070707"/>
<path d="M46.9055 49C46.2806 49 45.7242 48.8582 45.2363 48.5746C44.7569 48.2824 44.3802 47.8871 44.1063 47.3886C43.8324 46.8815 43.6954 46.3014 43.6954 45.6483C43.6954 44.9865 43.8281 44.4021 44.0935 43.895C44.3588 43.388 44.7312 42.9926 45.2106 42.709C45.69 42.4168 46.2378 42.2707 46.8541 42.2707C47.4962 42.2707 48.0483 42.4082 48.5105 42.6832C48.9728 42.9497 49.328 43.3235 49.5763 43.8048C49.8331 44.2861 49.9615 44.8619 49.9615 45.5322V46.0092L44.5172 46.0221L44.5429 45.0166H48.4078C48.4078 44.5783 48.2666 44.2259 47.9841 43.9595C47.7102 43.6931 47.3378 43.5599 46.867 43.5599C46.4989 43.5599 46.1864 43.6372 45.9296 43.7919C45.6814 43.9466 45.4931 44.1786 45.3647 44.488C45.2363 44.7974 45.1721 45.1756 45.1721 45.6225C45.1721 46.31 45.3176 46.83 45.6086 47.1823C45.9082 47.5347 46.3491 47.7109 46.9312 47.7109C47.3592 47.7109 47.7102 47.6292 47.9841 47.4659C48.2666 47.3026 48.4506 47.0706 48.5362 46.7698H49.9872C49.8502 47.4659 49.5078 48.0117 48.9599 48.407C48.4207 48.8023 47.7358 49 46.9055 49Z" fill="#070707"/>
</svg>
