{
    "asset" : {
        "generator" : "Khronos glTF Blender I/O v3.4.50",
        "version" : "2.0"
    },
    "extensionsUsed" : [
        "KHR_materials_specular",
        "KHR_materials_ior"
    ],
    "scene" : 0,
    "scenes" : [
        {
            "name" : "Scene",
            "nodes" : [
                0
            ]
        }
    ],
    "nodes" : [
        {
            "mesh" : 0,
            "name" : "card son",
            "rotation" : [
                0.70710688829422,
                0,
                0,
                0.7071066498756409
            ]
        }
    ],
    "materials" : [
        {
            "doubleSided" : true,
            "extensions" : {
                "KHR_materials_specular" : {
                    "specularColorFactor" : [
                        0.7825480438613255,
                        0.7825480438613255,
                        0.7825480438613255
                    ]
                },
                "KHR_materials_ior" : {
                    "ior" : 1.4500000476837158
                }
            },
            "name" : "Color_M00",
            "pbrMetallicRoughness" : {
                "metallicFactor" : 0
            }
        },
        {
            "doubleSided" : true,
            "extensions" : {
                "KHR_materials_specular" : {
                    "specularColorFactor" : [
                        0.7825480438613255,
                        0.7825480438613255,
                        0.7825480438613255
                    ]
                },
                "KHR_materials_ior" : {
                    "ior" : 1.4500000476837158
                }
            },
            "name" : "_1",
            "pbrMetallicRoughness" : {
                "baseColorTexture" : {
                    "index" : 0
                },
                "metallicFactor" : 0
            }
        },
        {
            "doubleSided" : true,
            "extensions" : {
                "KHR_materials_specular" : {
                    "specularColorFactor" : [
                        0.7825480438613255,
                        0.7825480438613255,
                        0.7825480438613255
                    ]
                },
                "KHR_materials_ior" : {
                    "ior" : 1.4500000476837158
                }
            },
            "name" : "Color_M09",
            "pbrMetallicRoughness" : {
                "baseColorFactor" : [
                    0,
                    0,
                    0,
                    1
                ],
                "metallicFactor" : 0
            }
        }
    ],
    "meshes" : [
        {
            "name" : "card son.001",
            "primitives" : [
                {
                    "attributes" : {
                        "POSITION" : 0,
                        "TEXCOORD_0" : 1,
                        "NORMAL" : 2
                    },
                    "indices" : 3,
                    "material" : 0
                },
                {
                    "attributes" : {
                        "POSITION" : 4,
                        "TEXCOORD_0" : 5,
                        "NORMAL" : 6
                    },
                    "indices" : 7,
                    "material" : 1
                },
                {
                    "attributes" : {
                        "POSITION" : 8,
                        "TEXCOORD_0" : 9,
                        "NORMAL" : 10
                    },
                    "indices" : 11,
                    "material" : 2
                }
            ]
        }
    ],
    "textures" : [
        {
            "sampler" : 0,
            "source" : 0
        }
    ],
    "images" : [
        {
            "mimeType" : "image/png",
            "name" : "_1",
            "uri" : "_1.png"
        }
    ],
    "accessors" : [
        {
            "bufferView" : 0,
            "componentType" : 5126,
            "count" : 7022,
            "max" : [
                3.751539945602417,
                0.6840540170669556,
                4.884799957275391
            ],
            "min" : [
                -3.733829975128174,
                -0.5899999737739563,
                -4.67287015914917
            ],
            "type" : "VEC3"
        },
        {
            "bufferView" : 1,
            "componentType" : 5126,
            "count" : 7022,
            "type" : "VEC2"
        },
        {
            "bufferView" : 2,
            "componentType" : 5126,
            "count" : 7022,
            "type" : "VEC3"
        },
        {
            "bufferView" : 3,
            "componentType" : 5123,
            "count" : 10458,
            "type" : "SCALAR"
        },
        {
            "bufferView" : 4,
            "componentType" : 5126,
            "count" : 65,
            "max" : [
                3.7340099811553955,
                0.6840540170669556,
                4.884799957275391
            ],
            "min" : [
                -3.733829975128174,
                -0.4915800094604492,
                -4.670340061187744
            ],
            "type" : "VEC3"
        },
        {
            "bufferView" : 5,
            "componentType" : 5126,
            "count" : 65,
            "type" : "VEC2"
        },
        {
            "bufferView" : 6,
            "componentType" : 5126,
            "count" : 65,
            "type" : "VEC3"
        },
        {
            "bufferView" : 7,
            "componentType" : 5123,
            "count" : 189,
            "type" : "SCALAR"
        },
        {
            "bufferView" : 8,
            "componentType" : 5126,
            "count" : 65,
            "max" : [
                3.751539945602417,
                0.5856339931488037,
                4.882269859313965
            ],
            "min" : [
                -3.7163000106811523,
                -0.5899999737739563,
                -4.67287015914917
            ],
            "type" : "VEC3"
        },
        {
            "bufferView" : 9,
            "componentType" : 5126,
            "count" : 65,
            "type" : "VEC2"
        },
        {
            "bufferView" : 10,
            "componentType" : 5126,
            "count" : 65,
            "type" : "VEC3"
        },
        {
            "bufferView" : 11,
            "componentType" : 5123,
            "count" : 189,
            "type" : "SCALAR"
        }
    ],
    "bufferViews" : [
        {
            "buffer" : 0,
            "byteLength" : 84264,
            "byteOffset" : 0,
            "target" : 34962
        },
        {
            "buffer" : 0,
            "byteLength" : 56176,
            "byteOffset" : 84264,
            "target" : 34962
        },
        {
            "buffer" : 0,
            "byteLength" : 84264,
            "byteOffset" : 140440,
            "target" : 34962
        },
        {
            "buffer" : 0,
            "byteLength" : 20916,
            "byteOffset" : 224704,
            "target" : 34963
        },
        {
            "buffer" : 0,
            "byteLength" : 780,
            "byteOffset" : 245620,
            "target" : 34962
        },
        {
            "buffer" : 0,
            "byteLength" : 520,
            "byteOffset" : 246400,
            "target" : 34962
        },
        {
            "buffer" : 0,
            "byteLength" : 780,
            "byteOffset" : 246920,
            "target" : 34962
        },
        {
            "buffer" : 0,
            "byteLength" : 378,
            "byteOffset" : 247700,
            "target" : 34963
        },
        {
            "buffer" : 0,
            "byteLength" : 780,
            "byteOffset" : 248080,
            "target" : 34962
        },
        {
            "buffer" : 0,
            "byteLength" : 520,
            "byteOffset" : 248860,
            "target" : 34962
        },
        {
            "buffer" : 0,
            "byteLength" : 780,
            "byteOffset" : 249380,
            "target" : 34962
        },
        {
            "buffer" : 0,
            "byteLength" : 378,
            "byteOffset" : 250160,
            "target" : 34963
        }
    ],
    "samplers" : [
        {
            "magFilter" : 9729,
            "minFilter" : 9987
        }
    ],
    "buffers" : [
        {
            "byteLength" : 250540,
            "uri" : "card.bin"
        }
    ]
}
